<svg width="24" height="24" viewBox="0 0 24 24" fill="none" xmlns="http://www.w3.org/2000/svg">
<circle cx="12" cy="12" r="12" fill="#4F00F6"/>
<path d="M12 8C12 7.20435 11.6839 6.44129 11.1213 5.87868C10.5587 5.31607 9.79565 5 9 5C8.20435 5 7.44129 5.31607 6.87868 5.87868C6.31607 6.44129 6 7.20435 6 8C6 8.79565 6.31607 9.55871 6.87868 10.1213C7.44129 10.6839 8.20435 11 9 11C9.79565 11 10.5587 10.6839 11.1213 10.1213C11.156 10.0867 11.1897 10.0513 11.2224 10.0152L14.0227 11.6319C14.0076 11.7534 14 11.8763 14 12C14 12.1963 14.0192 12.3907 14.0567 12.5805L11.3544 14.1407C11.2822 14.0493 11.2045 13.9618 11.1213 13.8787C10.5587 13.3161 9.79565 13 9 13C8.20435 13 7.44129 13.3161 6.87868 13.8787C6.31607 14.4413 6 15.2044 6 16C6 16.7956 6.31607 17.5587 6.87868 18.1213C7.44129 18.6839 8.20435 19 9 19C9.79565 19 10.5587 18.6839 11.1213 18.1213C11.6655 17.5771 11.9791 16.8453 11.999 16.0779L15.0757 14.3016C15.6132 14.751 16.2938 15 17 15C17.7957 15 18.5587 14.6839 19.1213 14.1213C19.6839 13.5587 20 12.7956 20 12C20 11.2044 19.6839 10.4413 19.1213 9.87868C18.5587 9.31607 17.7957 9 17 9C16.2229 9 15.477 9.30148 14.9184 9.83966L11.9961 8.15246C11.9987 8.10181 12 8.05097 12 8Z" fill="white"/>
</svg>
