<svg width="24" height="24" fill="none" xmlns="http://www.w3.org/2000/svg"><rect width="24" height="24" rx="12" fill="#4F00F6"/><g clip-path="url(#a)" stroke="#fff" stroke-width="2" stroke-linecap="round" stroke-linejoin="round"><path d="M18.429 13.348 12 19.714l-6.429-6.366a4.287 4.287 0 0 1 5.115-6.793c.514.293.961.69 1.314 1.165a4.286 4.286 0 1 1 6.429 5.633"/><path d="m12 7.714-2.823 2.823a.857.857 0 0 0 0 1.212l.466.465a1.516 1.516 0 0 0 2.143 0l.857-.857a2.727 2.727 0 0 1 3.857 0l1.929 1.929M12.429 15.857l1.714 1.715M14.571 13.714l1.715 1.715"/></g><defs><clipPath id="a"><path fill="#fff" transform="translate(1.714 2.572)" d="M0 0h20.571v20.571H0z"/></clipPath></defs></svg>