<svg width="24" height="24" viewBox="0 0 24 24" fill="none" xmlns="http://www.w3.org/2000/svg">
<rect width="24" height="24" fill="#4F00F6"/>
<g clip-path="url(#clip0_58_10)">
<path d="M18.4286 13.3476L12 19.7144L5.57145 13.3476C5.14743 12.9349 4.81343 12.439 4.59049 11.891C4.36755 11.3429 4.2605 10.7547 4.27608 10.1632C4.29166 9.57178 4.42953 8.98996 4.68101 8.45442C4.9325 7.91888 5.29214 7.44121 5.7373 7.05149C6.18245 6.66177 6.70348 6.36844 7.26758 6.18997C7.83167 6.01151 8.4266 5.95178 9.01491 6.01454C9.60322 6.07729 10.1722 6.26118 10.6859 6.55463C11.1997 6.84807 11.6471 7.24471 12 7.71956C12.3545 7.24815 12.8024 6.85498 13.3158 6.56465C13.8292 6.27432 14.397 6.09309 14.9837 6.03229C15.5703 5.9715 16.1632 6.03245 16.7253 6.21133C17.2873 6.39021 17.8063 6.68317 18.2499 7.07187C18.6935 7.46058 19.0521 7.93666 19.3032 8.47033C19.5544 9.00399 19.6927 9.58375 19.7094 10.1733C19.7262 10.7629 19.6211 11.3496 19.4007 11.8966C19.1803 12.4437 18.8494 12.9394 18.4286 13.3527" stroke="white" stroke-width="2" stroke-linecap="round" stroke-linejoin="round"/>
<path d="M12 7.71442L9.17744 10.537C9.01675 10.6977 8.92648 10.9157 8.92648 11.143C8.92648 11.3703 9.01675 11.5882 9.17744 11.749L9.64287 12.2144C10.2343 12.8058 11.1943 12.8058 11.7857 12.2144L12.6429 11.3573C13.1544 10.8458 13.8481 10.5584 14.5714 10.5584C15.2948 10.5584 15.9885 10.8458 16.5 11.3573L18.4286 13.2858" stroke="white" stroke-width="2" stroke-linecap="round" stroke-linejoin="round"/>
<path d="M12.4286 15.8572L14.1429 17.5715" stroke="white" stroke-width="2" stroke-linecap="round" stroke-linejoin="round"/>
<path d="M14.5714 13.7144L16.2857 15.4287" stroke="white" stroke-width="2" stroke-linecap="round" stroke-linejoin="round"/>
</g>
<defs>
<clipPath id="clip0_58_10">
<rect width="20.5714" height="20.5714" fill="white" transform="translate(1.71429 2.57153)"/>
</clipPath>
</defs>
</svg>
